# xmcd
#
# Track frame offsets:
#	150
#	15410
#	31172
#	45892
#	60005
#	76680
#	91410
#	106035
#	121462
#	140060
#	157862
#
# Disc length: 2310 seconds
#
# Revision: 1
# Processed by: cddbd v1.5.1PL0 Copyright (c) Steve Scherf et al.
# Submitted via: CDex 1.50Beta5
#
DISCID=6b09040b
DTITLE=小坂明子 - ハーイあっこです あっこのしあわせアルバム
DYEAR=1991
DGENRE=Soundtrack
TTITLE0=小坂明子/キッチンから愛をこめて
TTITLE1=山本優/あたしがんばります
TTITLE2=橋本潮/おかえりなさい
TTITLE3=山本優/神様おねがい
TTITLE4=小坂明子/はじめまして
TTITLE5=山本優/子育ては戦争
TTITLE6=鳥飼真己子/太郎体操
TTITLE7=山本優/ママはスーパーウーマン
TTITLE8=小坂明子/晴れのち晴れ
TTITLE9=山本優/夢はみんなで
TTITLE10=鳥飼真己子/ぱっとちょっとちゅっちゅ
EXTD=
EXTT0=
EXTT1=
EXTT2=
EXTT3=
EXTT4=
EXTT5=
EXTT6=
EXTT7=
EXTT8=
EXTT9=
EXTT10=
PLAYORDER=
